<svg width="53" height="66" viewBox="0 0 53 66" fill="none" xmlns="http://www.w3.org/2000/svg">
<path fill-rule="evenodd" clip-rule="evenodd" d="M1.33789 64.1429H43.8833V7.41559H1.33789V64.1429Z" fill="#B8B8B8"/>
<path fill-rule="evenodd" clip-rule="evenodd" d="M28.6876 7.41558C28.6876 4.05956 25.9657 1.33766 22.6097 1.33766C19.2536 1.33766 16.5317 4.05956 16.5317 7.41558H11.4668V11.4675H33.7525V7.41558H28.6876Z" fill="#E2DDDF"/>
<path fill-rule="evenodd" clip-rule="evenodd" d="M4.37695 61.1039H40.8445V10.4545H4.37695V61.1039Z" fill="#E2DDDF"/>
<path d="M36.7924 7.41559H43.8833V64.1429H1.33789V7.41559H8.4288" stroke="white" stroke-width="2"/>
<path d="M21.5977 7.41558H23.6236" stroke="#524A4D" stroke-width="2"/>
<path d="M10.4551 20.5844H12.4811" stroke="#A8A0A2" stroke-width="2"/>
<path d="M14.5059 20.5844H34.7656" stroke="#A8A0A2" stroke-width="2"/>
<path d="M10.4551 24.6364H12.4811" stroke="#A8A0A2" stroke-width="2"/>
<path d="M14.5059 24.6364H34.7656" stroke="#A8A0A2" stroke-width="2"/>
<path d="M10.4551 28.6883H12.4811" stroke="#A8A0A2" stroke-width="2"/>
<path d="M14.5059 28.6883H34.7656" stroke="#A8A0A2" stroke-width="2"/>
<path d="M10.4551 32.7403H12.4811" stroke="#A8A0A2" stroke-width="2"/>
<path d="M14.5059 32.7403H34.7656" stroke="#A8A0A2" stroke-width="2"/>
<path d="M10.4551 36.7922H12.4811" stroke="#A8A0A2" stroke-width="2"/>
<path d="M14.5059 36.7922H34.7656" stroke="#A8A0A2" stroke-width="2"/>
<path d="M34.7662 46.9221H32.7402" stroke="#A8A0A2" stroke-width="2"/>
<path d="M30.7152 46.9221H22.6113" stroke="#A8A0A2" stroke-width="2"/>
<path fill-rule="evenodd" clip-rule="evenodd" d="M28.6876 7.41558C28.6876 4.05956 25.9657 1.33766 22.6097 1.33766C19.2536 1.33766 16.5317 4.05956 16.5317 7.41558H11.4668V11.4675H33.7525V7.41558H28.6876Z" stroke="white" stroke-width="2"/>
<path fill-rule="evenodd" clip-rule="evenodd" d="M47.9355 11.4675H51.9875V7.41559H47.9355V11.4675Z" fill="#E2DDDF"/>
<path fill-rule="evenodd" clip-rule="evenodd" d="M47.9355 11.4675H51.9875V60.0909L49.9615 64.1429L47.9355 60.0909V11.4675Z" fill="#FF7652"/>
<path fill-rule="evenodd" clip-rule="evenodd" d="M47.9355 55.026H51.9875V46.9221H47.9355V55.026Z" fill="#E2DDDF"/>
<path fill-rule="evenodd" clip-rule="evenodd" d="M47.9355 7.41559H51.9875V60.0909L49.9615 64.1429L47.9355 60.0909V7.41559Z" stroke="#FF7652" stroke-width="2" stroke-linejoin="round"/>
<path d="M47.2598 55.026H52.6624" stroke="white" stroke-width="2"/>
<path d="M47.2598 46.9221H52.6624" stroke="white" stroke-width="2"/>
<path d="M47.2593 11.4675H52.6619" stroke="white" stroke-width="2"/>
</svg>
