<svg width="24" height="24" fill="none" xmlns="http://www.w3.org/2000/svg"><path d="M21.6 0H2.4C1.08 0 0 1.08 0 2.4v19.2C0 22.92 1.08 24 2.4 24h19.2c1.32 0 2.4-1.08 2.4-2.4V2.4C24 1.08 22.92 0 21.6 0zM12 7.2c2.64 0 4.8 2.16 4.8 4.8 0 2.64-2.16 4.8-4.8 4.8-2.64 0-4.8-2.16-4.8-4.8 0-2.64 2.16-4.8 4.8-4.8zM3 21.6c-.36 0-.6-.24-.6-.6V10.8h2.52c-.12.36-.12.84-.12 1.2 0 3.96 3.24 7.2 7.2 7.2s7.2-3.24 7.2-7.2c0-.36 0-.84-.12-1.2h2.52V21c0 .36-.24.6-.6.6H3zM21.6 5.4c0 .36-.24.6-.6.6h-2.4c-.36 0-.6-.24-.6-.6V3c0-.36.24-.6.6-.6H21c.36 0 .6.24.6.6v2.4z" fill="#fff"/></svg>