<svg width="15" height="15" viewBox="0 0 22 22" class="fill" xmlns="http://www.w3.org/2000/svg"><path d="M2.607 5.364c1.625 0 2.637-1.099 2.637-2.47C5.214 1.49 4.232.422 2.638.422 1.042.423 0 1.491 0 2.893c0 1.372 1.012 2.471 2.577 2.471h.03zM.276 21.613h4.662V7.315H.276v14.298zm7.242 0h4.662v-7.984c0-.428.031-.855.154-1.16.337-.854 1.104-1.738 2.392-1.738 1.688 0 2.362 1.311 2.362 3.233v7.649h4.662v-8.198c0-4.392-2.3-6.435-5.368-6.435-2.515 0-3.619 1.433-4.232 2.409h.03V7.315H7.518c.06 1.342 0 14.298 0 14.298" fill="#FEFEFE" fill-rule="evenodd"/></svg>