<svg width="105" height="54" fill="none" xmlns="http://www.w3.org/2000/svg"><path fill-rule="evenodd" clip-rule="evenodd" d="M56.16 16.008a23.801 23.801 0 0 0-5.125-8.323 22.18 22.18 0 0 0-7.93-5.26C40.023 1.206 36.625.596 32.91.596H13.708v52.805H32.91c3.714 0 7.113-.61 10.195-1.829a22.164 22.164 0 0 0 7.931-5.262 23.793 23.793 0 0 0 5.125-8.322c1.213-3.259 1.819-6.928 1.819-11.008 0-4.055-.607-7.713-1.82-10.972zM52.52 36.87c-1.015 2.886-2.451 5.324-4.308 7.314a18.402 18.402 0 0 1-6.685 4.553 22.909 22.909 0 0 1-8.617 1.567H17.534V3.693H32.91a22.91 22.91 0 0 1 8.617 1.567 18.405 18.405 0 0 1 6.685 4.553c1.857 1.99 3.293 4.428 4.308 7.314 1.016 2.886 1.524 6.17 1.523 9.852 0 3.707-.507 7.004-1.523 9.89zm49.991 7.743a2.111 2.111 0 0 0-.372.243 26.146 26.146 0 0 1-3.157 2.537 18.273 18.273 0 0 1-3.453 1.829 19.624 19.624 0 0 1-4.066 1.119 30.442 30.442 0 0 1-5.033.373 21.118 21.118 0 0 1-8.301-1.623 19.147 19.147 0 0 1-6.667-4.665c-1.882-2.027-3.361-4.51-4.438-7.445-1.077-2.936-1.616-6.27-1.616-10.001 0-3.657.532-6.954 1.597-9.89a21.672 21.672 0 0 1 4.438-7.463 19.21 19.21 0 0 1 6.797-4.702 22.506 22.506 0 0 1 8.71-1.642c2.476 0 4.6.273 6.37.82a23.673 23.673 0 0 1 4.439 1.81c.978.522 1.91 1.128 2.784 1.81.668.548 1.151.822 1.448.822.367.026.72-.144.929-.448l1.151-1.679a25.737 25.737 0 0 0-7.577-4.74C93.721.56 90.54 0 86.95 0c-3.764 0-7.206.653-10.325 1.96a23.067 23.067 0 0 0-8.022 5.522 25.215 25.215 0 0 0-5.2 8.529c-1.239 3.307-1.857 6.963-1.857 10.969 0 4.08.6 7.787 1.802 11.12a24.65 24.65 0 0 0 5.07 8.529 22.404 22.404 0 0 0 7.817 5.448C79.267 53.36 82.604 54 86.244 54a30.937 30.937 0 0 0 5.998-.54 24.715 24.715 0 0 0 5.014-1.531 21.617 21.617 0 0 0 4.197-2.388A25.102 25.102 0 0 0 105 46.386l-1.486-1.605a.858.858 0 0 0-1.002-.169h-.001zM2.94 45.18a4.338 4.338 0 0 0-1.527.993 4.328 4.328 0 0 0-.966 1.539 5.602 5.602 0 0 0-.336 1.977v3.724h9.693v-3.724a5.6 5.6 0 0 0-.335-1.977 4.325 4.325 0 0 0-.966-1.539 4.336 4.336 0 0 0-1.527-.994 5.484 5.484 0 0 0-2.021-.353 5.467 5.467 0 0 0-2.015.353zm3.83.705c.498.177.955.462 1.342.836.367.361.652.804.836 1.296.197.533.295 1.1.288 1.671v2.982H.68v-2.982a4.665 4.665 0 0 1 .288-1.67c.184-.493.47-.935.836-1.297a3.741 3.741 0 0 1 1.343-.836 5.171 5.171 0 0 1 1.808-.295c.617-.01 1.23.089 1.816.295zm2.452-4.826H5.18v-4.466h-.568v4.466H.692v-5.366h-.58V41.8h9.693v-6.108l-.582-.015v5.381zM.974 27.662A3.426 3.426 0 0 0 .24 28.81 3.978 3.978 0 0 0 0 30.233c-.007.429.064.856.209 1.257.125.344.314.658.555.926a2.353 2.353 0 0 0 1.737.764 2.21 2.21 0 0 0 1.037-.22 2.11 2.11 0 0 0 .692-.58 3.26 3.26 0 0 0 .456-.818c.119-.305.226-.618.322-.94.096-.322.194-.635.294-.94.093-.287.218-.562.374-.817.142-.234.332-.432.555-.58.257-.156.55-.233.847-.22a2.28 2.28 0 0 1 .887.173c.27.111.514.282.716.5.208.232.37.505.476.804.121.345.18.712.175 1.08a3.409 3.409 0 0 1-.285 1.398c-.072.164-.16.32-.26.468-.093.134-.18.249-.26.345l-.202.246a.294.294 0 0 0-.082.165c.002.08.04.155.102.201l.302.202c.386-.356.702-.79.928-1.275a4.08 4.08 0 0 0 .34-1.736 3.884 3.884 0 0 0-.23-1.383 3.015 3.015 0 0 0-.627-1.023 2.668 2.668 0 0 0-.935-.637 3.002 3.002 0 0 0-1.147-.22 2.05 2.05 0 0 0-.997.22 2.116 2.116 0 0 0-.675.58 3.44 3.44 0 0 0-.456.817c-.12.305-.231.619-.332.94-.1.322-.202.636-.305.94a3.828 3.828 0 0 1-.38.818 1.936 1.936 0 0 1-.548.58 1.414 1.414 0 0 1-.815.22c-.247 0-.491-.05-.72-.148a1.746 1.746 0 0 1-.603-.433 2.06 2.06 0 0 1-.41-.706 3.317 3.317 0 0 1-.022-1.908c.123-.379.315-.729.565-1.03a.42.42 0 0 0 .128-.242.204.204 0 0 0-.117-.187l-.316-.172zm-.863-3.99v.742h9.693v-.742H.111zm5.295-9.004h.384c.042 0 .082-.02.11-.054a.193.193 0 0 0 .048-.134v-1.952h2.61c.123.226.234.448.332.667.098.218.18.444.246.676.068.241.12.487.154.736.038.278.057.558.055.84a5.43 5.43 0 0 1-.301 1.865 3.872 3.872 0 0 1-.87 1.408c-.395.397-.867.7-1.384.886a5.194 5.194 0 0 1-1.836.306 5.097 5.097 0 0 1-1.815-.306 3.795 3.795 0 0 1-1.37-.872 3.816 3.816 0 0 1-.863-1.368 5.085 5.085 0 0 1-.302-1.797 4.922 4.922 0 0 1 .425-2.146c.087-.196.193-.382.315-.555.076-.095.14-.199.191-.31a.217.217 0 0 0 .028-.17.206.206 0 0 0-.103-.133l-.302-.2a5.23 5.23 0 0 0-.496.706c-.147.25-.268.516-.363.792a5.214 5.214 0 0 0-.223.918A7.16 7.16 0 0 0 0 15.548c-.01.726.109 1.446.353 2.125.22.606.561 1.154 1 1.61a4.36 4.36 0 0 0 1.562 1.023 5.57 5.57 0 0 0 2.038.357 5.5 5.5 0 0 0 2.041-.364 4.325 4.325 0 0 0 1.566-1.045 4.688 4.688 0 0 0 1-1.646 6.304 6.304 0 0 0 .353-2.175 6.425 6.425 0 0 0-.274-1.945 6.327 6.327 0 0 0-.788-1.628H5.406v2.81-.002zM.111 1.522h8.131c.124 0 .254-.008.39-.023L.242 8.105a.345.345 0 0 0-.106.118.395.395 0 0 0-.024.155v.367h9.693v-.648h-8.16c-.123 0-.253.008-.39.022L9.667 1.5a.36.36 0 0 0 .107-.118.344.344 0 0 0 .03-.155V.88H.111v.641z" fill="#fff"/><path fill-rule="evenodd" clip-rule="evenodd" d="M31.773 24.252v6.562h.332v-6.562h-.331zm.568-2.545a.532.532 0 0 0-.099-.147.459.459 0 0 0-.14-.1.39.39 0 0 0-.162-.036.456.456 0 0 0-.309.775c.08.088.192.138.31.137a.385.385 0 0 0 .162-.036.454.454 0 0 0 .14-.1.549.549 0 0 0 .099-.143.42.42 0 0 0-.001-.35zm2.243 2.678a.125.125 0 0 0-.034-.098.114.114 0 0 0-.094-.035h-.159v6.562h.338v-4.971c.274-.416.626-.77 1.035-1.041a2.3 2.3 0 0 1 1.271-.377c.273-.006.544.045.797.15.219.095.412.244.564.434.157.202.271.436.335.689.076.299.112.608.109.918v4.2h.337v-4.2c.004-.351-.04-.7-.131-1.038a2.13 2.13 0 0 0-.389-.776 1.695 1.695 0 0 0-.65-.486 2.285 2.285 0 0 0-.914-.17 2.497 2.497 0 0 0-1.329.373c-.413.255-.77.598-1.048 1.005l-.038-1.139z" fill="#fff"/></svg>