<svg width="167" height="83" fill="none" xmlns="http://www.w3.org/2000/svg"><path d="M135.047.083c-12.62.94-23.361 7.196-29.715 17.306-1.597 2.545-3.422 6.52-4.317 9.408-1.378 4.414-1.992 8.38-2.098 13.47-.166 8.399 1.343 15.7 4.599 22.247 2.94 5.906 6.924 10.47 12.172 13.944 5.204 3.458 10.943 5.433 17.604 6.056 4.159.395 9.17.193 13.242-.518 6.687-1.176 12.444-3.958 17.35-8.381.921-.834 2.94-2.949 3.115-3.273.035-.062-1.079-1.343-2.685-3.08-3.186-3.467-3.256-3.52-4.388-3.52-.623 0-.772.035-1.272.281-.316.158-.887.57-1.273.913-3.422 3.054-7.196 4.984-11.312 5.774-2.817.544-7.02.773-9.837.536-9.048-.773-16.279-5.696-20.36-13.857-1.755-3.52-2.729-6.968-3.265-11.55-.219-1.868-.219-7.151 0-9.064.43-3.827 1.247-7.1 2.493-10.013 3.773-8.838 10.697-14.042 20.254-15.209.614-.07 1.904-.114 3.554-.114 3.59.009 5.494.246 8.065 1.018 3.089.921 5.687 2.203 8.978 4.432 1.448.983 2.08 1.22 3.097 1.158.808-.052 1.422-.342 1.984-.921.421-.43 4.826-6.608 4.809-6.749-.018-.22-2.826-2.527-4.432-3.642-2.518-1.755-5.809-3.466-8.679-4.51-3.221-1.168-6.652-1.87-10.531-2.15-1.439-.106-5.695-.097-7.152.008zM21.665 41.32v40.456h16.612c17.016 0 17.578-.008 20.421-.36 7.284-.886 14.13-3.659 19.614-7.933 7.45-5.8 12.365-14.567 13.9-24.791.37-2.457.483-4.125.483-7.24.01-3.756-.21-6.292-.79-9.302-2.123-10.996-8.17-19.947-17.165-25.415-1.43-.877-4.194-2.246-5.73-2.86-4.24-1.669-8.513-2.599-13.515-2.924C54.618.9 48.08.864 37.882.864H21.665V41.32zm34.62-29.539c3.695.518 6.187 1.273 9.083 2.738 2.87 1.448 5.564 3.607 7.486 6.003 4.16 5.16 6.38 12.426 6.38 20.842 0 9.53-2.809 17.42-8.057 22.65a22.915 22.915 0 0 1-6.029 4.292c-2.202 1.08-4.168 1.746-6.44 2.185-3.037.597-4.59.667-15.253.667h-8.539V11.562l10.162.035c8.952.026 10.277.053 11.207.184z" fill="#000"/><path d="M48.913 33.633c-.482.482-.307 1.307.307 1.509.93.307 1.65-.781.974-1.466-.342-.342-.956-.36-1.28-.044zm7.363 4.081c-.588.219-1.115.552-1.676 1.079l-.456.439-.044-.299a7.048 7.048 0 0 1-.07-.728l-.027-.439-.412-.026-.422-.026v9.75h.966v-7.346l.64-.614c.369-.342.878-.729 1.168-.869.473-.228.596-.255 1.439-.255.842 0 .956.018 1.325.237.22.132.509.395.64.58.5.728.527.886.562 4.73l.026 3.536h.957v-3.536c0-3.756-.026-4.09-.439-4.897-.245-.483-.763-.974-1.281-1.229-.588-.29-2.211-.342-2.896-.087zm-7.231 4.879v4.87h.965v-9.74h-.965v4.87zM.164 2.575V3.76h11.251L5.982 7.981C3 10.298.472 12.3.366 12.413c-.184.202-.202.307-.202 1.185v.956h15.797v-2.369l-5.652-.018-5.643-.026 5.529-4.3c4.23-3.291 5.555-4.37 5.651-4.581.062-.167.114-.614.114-1.08v-.79H.165v1.185zm7.898 17.859v2.545h.904c1.229 0 1.203.035 1.203-1.518v-1.202h2.957l.228.509c.413.904.535 1.553.535 2.694 0 1.755-.43 2.896-1.483 3.958-1.08 1.097-2.5 1.614-4.405 1.614-3.791 0-6.134-2.597-5.652-6.248.123-.948.343-1.588.843-2.475.64-1.123.579-1.342-.553-2.027-.667-.412-.685-.404-1.299.492-.57.842-.948 1.755-1.176 2.887-.167.798-.184 1.114-.149 2.325.053 1.641.22 2.37.799 3.598.72 1.519 1.843 2.642 3.387 3.37 1.316.632 1.904.746 3.817.746 1.448 0 1.764-.026 2.37-.193 1.518-.421 2.966-1.343 3.905-2.492.562-.694 1.255-2.089 1.492-3.002.667-2.632.263-5.598-1.036-7.617l-.324-.509H8.062v2.545zM.164 36.275v1.36h15.797v-2.72H.163v1.36zM9.95 40.83c-1.019.254-1.879.964-2.432 2.026-.175.334-.544 1.264-.816 2.063-.57 1.65-.913 2.351-1.325 2.72-.57.5-1.378.553-2.097.15-.983-.554-1.378-2.274-.834-3.66a8.61 8.61 0 0 1 .535-1.062c.562-.93.474-1.167-.623-1.703l-.72-.35-.342.394c-.421.483-.895 1.43-1.106 2.194-.228.834-.219 3.01.01 3.686.552 1.615 1.544 2.65 2.965 3.08.5.15.773.185 1.589.158.939-.035 1.027-.052 1.658-.368.782-.378 1.343-.957 1.756-1.764.149-.299.5-1.246.79-2.115.289-.869.614-1.738.728-1.94.298-.5.851-.983 1.228-1.053.58-.105 1.343.018 1.782.29.834.509 1.22 1.457 1.14 2.79-.052.878-.298 1.519-.92 2.44-.545.799-.641 1.106-.44 1.413.15.22 1.43 1.044 1.563 1 .201-.07.921-1.07 1.272-1.781.57-1.158.755-1.966.764-3.29.008-1.238-.123-1.861-.57-2.8-.37-.773-1.309-1.72-2.09-2.098-1.017-.5-2.448-.675-3.466-.42zM.164 58.038v4.959h15.797V53.08h-2.194v7.196h-4.74v-5.792H6.922v5.792H2.358V53.08H.164v4.958zm6.801 8.118a7.876 7.876 0 0 0-2.72.79c-1.518.737-2.51 1.72-3.247 3.203-.755 1.527-.772 1.658-.816 6.029l-.027 3.844h15.823l-.035-3.713c-.044-3.633-.044-3.72-.263-4.537-.553-2.044-1.668-3.589-3.291-4.554-1.466-.87-3.563-1.282-5.424-1.062zm2.809 2.87c1.535.324 2.808 1.254 3.413 2.492.465.956.58 1.694.58 3.905v1.878H2.358v-2.089c0-2.29.062-2.703.527-3.677 1.044-2.132 3.861-3.159 6.889-2.51z" fill="#000"/></svg>