<svg width="52" height="52" viewBox="0 0 52 52" fill="none" xmlns="http://www.w3.org/2000/svg">
<path fill-rule="evenodd" clip-rule="evenodd" d="M44.6875 30.875H47.9375V13.8125C47.9375 12.0185 46.4823 10.5625 44.6875 10.5625H34.9375C33.3125 10.5625 31.6875 13 31.6875 13L26 21.9375V26.8125H26.8125L34.125 17.0625H34.9375V30.0625H44.6875V30.875Z" fill="#75B8FA"/>
<path fill-rule="evenodd" clip-rule="evenodd" d="M7.3125 30.875H4.0625V13.8125C4.0625 12.0185 5.51769 10.5625 7.3125 10.5625H17.0625C18.6875 10.5625 20.3125 13 20.3125 13L28.4375 25.1875L26.8125 26.8125H25.1875L17.875 17.0625H17.0625V30.0625H7.3125V30.875Z" fill="#FF7652"/>
<mask id="mask0" mask-type="alpha" maskUnits="userSpaceOnUse" x="0" y="0" width="52" height="52">
<path fill-rule="evenodd" clip-rule="evenodd" d="M0 52H52V0H0V52Z" fill="white"/>
</mask>
<g mask="url(#mask0)">
<path fill-rule="evenodd" clip-rule="evenodd" d="M7.3125 51.1875H17.0625V30.0625H7.3125V51.1875Z" fill="#736B6D"/>
<path d="M12.1875 34.125V51.1875" stroke="white" stroke-width="2"/>
<path fill-rule="evenodd" clip-rule="evenodd" d="M34.9375 51.1867H44.6875V30.0625H34.9375V51.1867Z" fill="#736B6D"/>
<path d="M39.8125 34.125V51.1875" stroke="white" stroke-width="2"/>
<path d="M7.3125 16.25V30.0625H17.0625V17.0625H17.875L23.3594 24.375L25.1875 26.8125H26.8125L34.125 17.0625H34.9375V30.0625H44.6875V16.25" stroke="white" stroke-width="2"/>
<path fill-rule="evenodd" clip-rule="evenodd" d="M15.4375 4.0625C15.4375 5.85731 13.9823 7.3125 12.1875 7.3125C10.3927 7.3125 8.9375 5.85731 8.9375 4.0625C8.9375 2.26769 10.3927 0.8125 12.1875 0.8125C13.9823 0.8125 15.4375 2.26769 15.4375 4.0625Z" fill="white"/>
<path fill-rule="evenodd" clip-rule="evenodd" d="M15.4375 4.0625C15.4375 5.85731 13.9823 7.3125 12.1875 7.3125C10.3927 7.3125 8.9375 5.85731 8.9375 4.0625C8.9375 2.26769 10.3927 0.8125 12.1875 0.8125C13.9823 0.8125 15.4375 2.26769 15.4375 4.0625Z" stroke="white" stroke-width="2"/>
<path fill-rule="evenodd" clip-rule="evenodd" d="M43.0625 4.0625C43.0625 5.85731 41.6073 7.3125 39.8125 7.3125C38.0177 7.3125 36.5625 5.85731 36.5625 4.0625C36.5625 2.26769 38.0177 0.8125 39.8125 0.8125C41.6073 0.8125 43.0625 2.26769 43.0625 4.0625Z" fill="white"/>
<path fill-rule="evenodd" clip-rule="evenodd" d="M43.0625 4.0625C43.0625 5.85731 41.6073 7.3125 39.8125 7.3125C38.0177 7.3125 36.5625 5.85731 36.5625 4.0625C36.5625 2.26769 38.0177 0.8125 39.8125 0.8125C41.6073 0.8125 43.0625 2.26769 43.0625 4.0625Z" stroke="white" stroke-width="2"/>
<path d="M0 51.1875H52" stroke="white" stroke-width="2"/>
<path d="M39.8125 13V14.625" stroke="white" stroke-width="2"/>
<path d="M26 32.5V34.125" stroke="#A8A0A2" stroke-width="2"/>
<path d="M26 35.75V37.375" stroke="#A8A0A2" stroke-width="2"/>
<path d="M26 39V40.625" stroke="#A8A0A2" stroke-width="2"/>
</g>
</svg>
