<svg width="58" height="58" fill="none" xmlns="http://www.w3.org/2000/svg"><path fill-rule="evenodd" clip-rule="evenodd" d="M9 39.222h40.889V1.89H9v37.333zm0 .889H2.778A1.778 1.778 0 0 1 1 38.333V2.778C1 1.796 1.796 1 2.778 1H9v39.111zm40.889 0h6.222c.981 0 1.778-.796 1.778-1.778V2.778c0-.982-.797-1.778-1.778-1.778H49.89v39.111z" fill="#fff"/><path d="M9 39.222V1.89M4.556 21.445v-1.778m0-1.778V16.11m0 8.89v-1.778m48.888.889V17" stroke="#524A4D" stroke-width="2"/><path clip-rule="evenodd" d="M9 39.222h40.889V1.89H9v37.333z" stroke="#DEDEDE" stroke-width="2"/><path fill-rule="evenodd" clip-rule="evenodd" d="M15.222 15.222h7.111v-7.11h-7.11v7.11z" fill="#75DBD0"/><path d="M23.222 8.111l-4.444 4.444L17 10.779" stroke="#524A4D" stroke-width="2"/><path fill-rule="evenodd" clip-rule="evenodd" d="M15.222 24.111h7.111V17h-7.11v7.111z" fill="#75DBD0"/><path d="M23.222 17l-4.444 4.444L17 19.667" stroke="#524A4D" stroke-width="2"/><path fill-rule="evenodd" clip-rule="evenodd" d="M15.222 33h7.111v-7.111h-7.11V33z" fill="#75DBD0"/><path d="M23.222 25.889l-4.444 4.444L17 28.556" stroke="#524A4D" stroke-width="2"/><path d="M25.889 9.889h17.778m-17.778 3.555h8.889m-8.889 5.334h17.778m-17.778 3.555h8.889m-8.889 5.334h17.778m-17.778 3.555h8.889" stroke="#A8A0A2" stroke-width="2"/><path fill-rule="evenodd" clip-rule="evenodd" d="M53.444 57H57v-3.556h-3.556V57z" fill="#fff"/><path fill-rule="evenodd" clip-rule="evenodd" d="M53.444 57v-3.556h-48L1.89 55.222 5.444 57h48z" fill="#FF7652"/><path fill-rule="evenodd" clip-rule="evenodd" d="M10.778 57h7.11v-3.556h-7.11V57z" fill="#fff"/><path clip-rule="evenodd" d="M57 57v-3.556H5.444L1.89 55.222 5.444 57H57z" stroke="#FF7652" stroke-width="2" stroke-linejoin="round"/><path d="M10.778 57v-3.556M14.333 57v-3.556M17.889 57v-3.556M53.444 57v-3.556" stroke="#DEDEDE" stroke-width="2"/></svg>