<svg width="58" height="71" fill="none" xmlns="http://www.w3.org/2000/svg"><path fill-rule="evenodd" clip-rule="evenodd" d="M56.313 9.956c0 2.444-12.383 4.425-27.657 4.425C13.382 14.381 1 12.4 1 9.956c0-2.443 12.382-4.425 27.656-4.425s27.657 1.982 27.657 4.425z" fill="#FACF6C"/><path d="M25.337 67.481h5.532v-3.319l-4.425-2.212v-3.32h5.531m-3.319 8.851V70.8m0-15.487v3.318" stroke="#FF7652" stroke-width="2"/><path d="M9.85 29.869L1 12.169V9.956m55.313 0v2.213l-8.85 17.7" stroke="#fff" stroke-width="2"/><path fill-rule="evenodd" clip-rule="evenodd" d="M45.25 34.294c0 2.444-8.04 4.425-16.594 4.425-8.553 0-16.593-1.981-16.593-4.425s8.04-4.425 16.593-4.425c8.554 0 16.594 1.981 16.594 4.425z" fill="#FACF6C"/><path d="M23.125 57.525L12.062 35.4v-1.106m33.188 0V35.4L34.187 57.525" stroke="#fff" stroke-width="2"/><path clip-rule="evenodd" d="M45.25 34.294c0 2.444-8.04 4.425-16.594 4.425-8.553 0-16.593-1.981-16.593-4.425s8.04-4.425 16.593-4.425c8.554 0 16.594 1.981 16.594 4.425zM56.313 9.956c0 2.444-12.383 4.425-27.657 4.425C13.382 14.381 1 12.4 1 9.956c0-2.443 12.382-4.425 27.656-4.425s27.657 1.982 27.657 4.425z" stroke="#fff" stroke-width="2"/><path d="M28.656 17.7v17.7m4.425-17.7v17.7m-8.85-17.7v17.7m-4.425-24.337V0m4.425 11.063V0m4.425 11.063V0m4.425 11.063V0m4.425 11.063V0" stroke="#FF7652" stroke-width="2"/></svg>