<svg width="55" height="55" fill="none" xmlns="http://www.w3.org/2000/svg"><path fill-rule="evenodd" clip-rule="evenodd" d="M34.375 47.266C18.906 42.969 15.469 61.875 0 51.563V27.5c15.469 10.313 18.906-8.594 34.375-4.297v24.063z" fill="#FF7652"/><mask id="a" maskUnits="userSpaceOnUse" x="0" y="0" width="55" height="55"><path fill-rule="evenodd" clip-rule="evenodd" d="M0 55h55V0H0v55z" fill="#fff"/></mask><g mask="url(#a)"><path fill-rule="evenodd" clip-rule="evenodd" d="M24.922 55h25.781v-4.297H24.922V55zM42.11 20.625l-4.297 1.719-4.297-1.719v-3.438h8.593v3.438zm.859 2.578H32.656C25.781 27.5 21.484 29.22 21.484 33.516v13.75a3.438 3.438 0 0 0 3.438 3.437h25.781a3.438 3.438 0 0 0 3.438-3.437v-13.75c0-4.297-4.297-6.016-11.172-10.313z" fill="#DEDEDE"/><path fill-rule="evenodd" clip-rule="evenodd" d="M30.938 7.734a.86.86 0 0 0-.86.86v2.578a.86.86 0 0 0 1.719 0V8.594a.86.86 0 0 0-.86-.86zm13.75 0a.86.86 0 0 0-.86.86v2.578a.86.86 0 0 0 1.719 0V8.594a.86.86 0 0 0-.86-.86z" fill="#A8A0A2"/><path fill-rule="evenodd" clip-rule="evenodd" d="M30.938 6.016v2.578c1.718 0 2.578-4.297 2.578-4.297s1.718 2.578 4.297 2.578h4.296c1.72 0 2.578 1.719 2.578 1.719V6.016C44.688 2.578 42.11 0 37.813 0c-1.72 0-2.579.86-2.579.86s-4.297 0-4.297 5.156z" fill="#736B6D"/><path d="M48.125 34.375v8.186a1.718 1.718 0 0 1-2.079 1.68l-15.108-3.85" stroke="#fff" stroke-width="2" stroke-linecap="round"/><path d="M27.5 34.375v8.928a1.72 1.72 0 0 0 1.353 1.68s15.834 5.72 19.272 5.72h2.578a3.438 3.438 0 0 0 3.438-3.437v-13.75c0-4.297-4.297-6.016-11.172-10.313" stroke="#fff" stroke-width="2" stroke-linecap="round"/><path d="M37.813 50.703H24.922a3.438 3.438 0 0 1-3.438-3.437v-13.75c0-4.297 4.297-6.016 11.172-10.313" stroke="#fff" stroke-width="2" stroke-linecap="round"/><path fill-rule="evenodd" clip-rule="evenodd" d="M37.813 30.078l-3.438-3.437-3.438-3.438 2.579-2.578 4.297 1.719 4.296-1.719 2.578 2.578-6.874 6.875z" fill="#FF7652"/><path fill-rule="evenodd" clip-rule="evenodd" d="M44.688 8.594v1.719s0 3.437-1.72 6.015c-1.718 2.578-3.437 3.438-5.156 3.438-1.718 0-3.437-.86-5.156-3.438-1.718-2.578-1.718-6.015-1.718-6.015v-1.72c1.718 0 2.578-4.296 2.578-4.296s1.718 2.578 4.297 2.578h4.296c1.72 0 2.578 1.719 2.578 1.719z" fill="#fff"/></g></svg>