<svg width="56" height="75" fill="none" xmlns="http://www.w3.org/2000/svg"><path fill-rule="evenodd" clip-rule="evenodd" d="M50.32 28.085H1.17A1.17 1.17 0 0 0 0 29.255v7.022c0 .646.523 1.17 1.17 1.17h49.15a1.17 1.17 0 0 0 1.17-1.17v-7.022a1.17 1.17 0 0 0-1.17-1.17z" fill="#fff"/><path fill-rule="evenodd" clip-rule="evenodd" d="M7.021 37.447v4.68c0 .647.523 1.17 1.17 1.17.648 0 1.17.525 1.17 1.171v3.51a2.341 2.341 0 0 0 2.341 2.341 2.341 2.341 0 0 1 2.34 2.34v4.681a2.341 2.341 0 0 0 4.681 0 3.511 3.511 0 0 1 3.511-3.51 3.511 3.511 0 0 0 3.51-3.51 2.341 2.341 0 0 1 4.681 0 2.341 2.341 0 0 0 2.341 2.34h4.68a2.341 2.341 0 0 0 2.341-2.34v-3.511a2.341 2.341 0 0 1 2.34-2.34 2.341 2.341 0 0 0 2.341-2.341v-4.681H7.021z" fill="#A8A0A2"/><path d="M28.085 65.532v-2.34L55 45.637V35.106a2.341 2.341 0 0 0-2.34-2.34h-1.17" stroke="#DCDCDC" stroke-width="2"/><path fill-rule="evenodd" clip-rule="evenodd" d="M24.575 74.894v-8.192c0-.646.523-1.17 1.17-1.17h4.68c.648 0 1.17.524 1.17 1.17v8.192h-7.02zM7.021 25.745h37.447V0H7.021v25.745z" fill="#FF7652"/><path fill-rule="evenodd" clip-rule="evenodd" d="M25.745 4.68l2.34 5.852h5.851l-4.68 3.51 1.17 5.852-4.681-3.511-4.681 3.51 1.17-5.85-4.68-3.511h5.85l2.34-5.851z" fill="#fff"/><path d="M24.575 32.766h2.34m2.34 0h2.34m-11.701 0h2.34" stroke="#524A4D" stroke-width="2"/></svg>